<svg width="100" height="100" viewBox="0 0 106 86" fill="none" xmlns="http://www.w3.org/2000/svg"><path fill-rule="evenodd" clip-rule="evenodd" d="M83.461 16.155V86H95.04c6.054 0 10.96-4.974 10.96-11.099V2.471c0-2.093-2.404-3.232-3.997-1.895z" fill="url(#a)" style="fill:url(#a)"/><path fill-rule="evenodd" clip-rule="evenodd" d="M67.313 29.74 46.16 48.663a9.655 9.655 0 0 1-12.682.186L0 20.669V2.482C0 .389 2.404-.761 3.997.576l42.001 35.3a10.86 10.86 0 0 0 14.015 0z" fill="url(#b)" style="fill:url(#b)"/><path d="M83.461 16.166 67.313 29.741h.01L46.16 48.66a9.655 9.655 0 0 1-12.682.187L0 20.669v54.233C0 81.026 4.906 86 10.96 86h72.501z" fill="url(#c)" style="fill:url(#c)"/><defs><linearGradient id="a" x1="265.975" y1="141.754" x2="244.3" y2="-73.404" gradientUnits="userSpaceOnUse"><stop offset=".271" stop-color="#E3D9FF"/><stop offset="1" stop-color="#7341FF"/></linearGradient><linearGradient id="b" x1="62.635" y1="86.798" x2="18.553" y2="-87.28" gradientUnits="userSpaceOnUse"><stop stop-color="#E3D9FF"/><stop offset="1" stop-color="#7341FF"/></linearGradient><radialGradient id="c" cx="0" cy="0" r="1" gradientUnits="userSpaceOnUse" gradientTransform="matrix(123.614 0 0 125.045 105.538 10.527)"><stop offset=".556" stop-color="#6D4AFF"/><stop offset=".994" stop-color="#AA8EFF"/></radialGradient></defs></svg>
