<svg width="100" height="100" viewBox="0 0 32 32" fill="none" xmlns="http://www.w3.org/2000/svg"><path d="M16 2C8.278 2 2 8.278 2 16s6.278 14 14 14 14-6.278 14-14S23.722 2 16 2" fill="#FC471E"/><path fill-rule="evenodd" clip-rule="evenodd" d="M20.02 8.91a2 2 0 0 0-.02.246c0 .848.672 1.536 1.5 1.536s1.5-.688 1.5-1.536-.672-1.535-1.5-1.535c-.37 0-.707.136-.968.363L16.636 7l-1.408 5.765c-1.873.126-3.557.707-4.828 1.583a1.97 1.97 0 0 0-1.4-.585c-1.105 0-2 .917-2 2.047 0 .787.434 1.47 1.07 1.813Q8 17.99 8 18.37C8 21.48 11.582 24 16 24s8-2.52 8-5.63q0-.38-.07-.747A2.05 2.05 0 0 0 25 15.81c0-1.13-.895-2.047-2-2.047a1.97 1.97 0 0 0-1.4.585c-1.385-.955-3.26-1.558-5.335-1.606l1.099-4.5zm-7.52 9.97c.828 0 1.5-.687 1.5-1.535s-.672-1.536-1.5-1.536-1.5.688-1.5 1.536.672 1.535 1.5 1.535m7 0c.828 0 1.5-.687 1.5-1.535s-.672-1.536-1.5-1.536-1.5.688-1.5 1.536.672 1.535 1.5 1.535m-6.723 1.622a.493.493 0 0 0-.693.142.52.52 0 0 0 .139.71c1.088.742 2.432 1.114 3.777 1.114s2.69-.372 3.777-1.114a.52.52 0 0 0 .139-.71.493.493 0 0 0-.693-.142c-.92.628-2.072.942-3.223.942-.683 0-1.366-.11-2-.331a5.2 5.2 0 0 1-1.223-.611" fill="#fff"/></svg>
