<svg width="100" height="100" viewBox="0 0 32 32" fill="none" xmlns="http://www.w3.org/2000/svg"><path d="M2 11.6c0-3.36 0-5.04.654-6.324a6 6 0 0 1 2.622-2.622C6.56 2 8.24 2 11.6 2h8.8c3.36 0 5.04 0 6.324.654a6 6 0 0 1 2.622 2.622C30 6.56 30 8.24 30 11.6v8.8c0 3.36 0 5.04-.654 6.324a6 6 0 0 1-2.622 2.622C25.44 30 23.76 30 20.4 30h-8.8c-3.36 0-5.04 0-6.324-.654a6 6 0 0 1-2.622-2.622C2 25.44 2 23.76 2 20.4z" fill="#fff"/><path d="M23.636 9.34A18.8 18.8 0 0 0 19.097 8c-.195.332-.424.779-.581 1.134a17.7 17.7 0 0 0-5.03 0A12 12 0 0 0 12.897 8a18.7 18.7 0 0 0-4.542 1.343c-2.872 4.078-3.65 8.055-3.262 11.975a18.6 18.6 0 0 0 5.567 2.68 13 13 0 0 0 1.192-1.844 12 12 0 0 1-1.877-.859 9 9 0 0 0 .46-.342c3.62 1.59 7.553 1.59 11.13 0q.225.178.46.342c-.595.337-1.225.626-1.88.86q.516.974 1.191 1.845a18.6 18.6 0 0 0 5.57-2.682c.457-4.544-.78-8.484-3.27-11.978m-11.29 9.567c-1.087 0-1.978-.953-1.978-2.113s.872-2.116 1.977-2.116c1.106 0 1.997.953 1.978 2.116.002 1.16-.872 2.113-1.978 2.113m7.308 0c-1.086 0-1.977-.953-1.977-2.113s.872-2.116 1.977-2.116c1.106 0 1.997.953 1.978 2.116 0 1.16-.872 2.113-1.978 2.113" fill="#5865F2"/></svg>
