<svg width="100" height="100" viewBox="12 12 24 24" fill="none" xmlns="http://www.w3.org/2000/svg"><path d="M15.129 13.134c-1.047.621-3.11 2.99-3.129 3.612v1.029c0 1.303 1.219 2.45 2.325 2.45 1.329 0 2.436-1.102 2.436-2.409 0 1.307 1.07 2.408 2.398 2.408s2.364-1.1 2.364-2.408c0 1.307 1.136 2.408 2.465 2.408h.024c1.329 0 2.466-1.1 2.466-2.408 0 1.307 1.034 2.408 2.363 2.408s2.398-1.1 2.398-2.408c0 1.307 1.107 2.408 2.436 2.408 1.106 0 2.325-1.146 2.325-2.45v-1.028c-.02-.622-2.082-2.991-3.129-3.612-3.254-.115-5.51-.135-8.871-.134-3.362 0-7.945.053-8.871.133m6.377 6.476a2.78 2.78 0 0 1-2.415 1.396 2.78 2.78 0 0 1-1.951-.794 2.6 2.6 0 0 1-.446-.59 2.8 2.8 0 0 1-.485.59 2.8 2.8 0 0 1-1.952.795.8.8 0 0 1-.263-.052 40 40 0 0 0-.168 2.95v.005l-.006 1.167c.02 2.334-.231 7.564 1.03 8.85 1.952.455 5.545.662 9.15.663 3.605-.001 7.198-.209 9.15-.664 1.261-1.285 1.01-6.515 1.03-8.85l-.006-1.166v-.004a40 40 0 0 0-.168-2.95.8.8 0 0 1-.263.05 2.78 2.78 0 0 1-1.951-.794 2.8 2.8 0 0 1-.485-.59 2.6 2.6 0 0 1-.447.59 2.787 2.787 0 0 1-4.366-.602 2.7 2.7 0 0 1-.463.602 2.8 2.8 0 0 1-1.951.794l-.08-.002-.08.002a2.78 2.78 0 0 1-1.95-.794 2.7 2.7 0 0 1-.464-.602M19.502 22.2v.001h.001c.794.002 1.499 0 2.372.953A20 20 0 0 1 24 23.049c.72 0 1.438.035 2.125.108.874-.954 1.578-.952 2.372-.954h.001c.375 0 1.875 0 2.92 2.934l1.122 4.027c.832 2.995-.266 3.068-1.636 3.07-2.031-.075-3.156-1.55-3.156-3.025-1.124.184-2.436.277-3.748.277s-2.624-.093-3.748-.277c0 1.475-1.125 2.95-3.156 3.026-1.37-.003-2.468-.076-1.636-3.071l1.122-4.027c1.045-2.935 2.545-2.935 2.92-2.935M24 24.508c-.002.002-2.139 1.965-2.523 2.662l1.4-.056v1.22c0 .058.56.034 1.123.008.562.026 1.124.05 1.124-.008v-1.22l1.399.056C26.139 26.472 24 24.508 24 24.508" fill="#FF2449"/></svg>
